<svg width="84" height="83" viewBox="0 0 84 83" fill="none" xmlns="http://www.w3.org/2000/svg">
<rect width="3" height="3" fill="#C4C4C4"/>
<rect x="9" width="3" height="3" fill="#C4C4C4"/>
<rect x="9" y="10" width="3" height="3" fill="#C4C4C4"/>
<rect y="10" width="3" height="3" fill="#C4C4C4"/>
<rect x="18" width="3" height="3" fill="#C4C4C4"/>
<rect x="27" width="3" height="3" fill="#C4C4C4"/>
<rect x="27" y="10" width="3" height="3" fill="#C4C4C4"/>
<rect x="18" y="10" width="3" height="3" fill="#C4C4C4"/>
<rect y="20" width="3" height="3" fill="#C4C4C4"/>
<rect x="9" y="20" width="3" height="3" fill="#C4C4C4"/>
<rect x="9" y="30" width="3" height="3" fill="#C4C4C4"/>
<rect y="30" width="3" height="3" fill="#C4C4C4"/>
<rect x="18" y="20" width="3" height="3" fill="#C4C4C4"/>
<rect x="27" y="20" width="3" height="3" fill="#C4C4C4"/>
<rect x="27" y="30" width="3" height="3" fill="#C4C4C4"/>
<rect x="18" y="30" width="3" height="3" fill="#C4C4C4"/>
<rect x="36" width="3" height="3" fill="#C4C4C4"/>
<rect x="45" width="3" height="3" fill="#C4C4C4"/>
<rect x="45" y="10" width="3" height="3" fill="#C4C4C4"/>
<rect x="36" y="10" width="3" height="3" fill="#C4C4C4"/>
<rect x="54" width="3" height="3" fill="#C4C4C4"/>
<rect x="63" width="3" height="3" fill="#C4C4C4"/>
<rect x="63" y="10" width="3" height="3" fill="#C4C4C4"/>
<rect x="54" y="10" width="3" height="3" fill="#C4C4C4"/>
<rect x="36" y="20" width="3" height="3" fill="#C4C4C4"/>
<rect x="45" y="20" width="3" height="3" fill="#C4C4C4"/>
<rect x="45" y="30" width="3" height="3" fill="#C4C4C4"/>
<rect x="36" y="30" width="3" height="3" fill="#C4C4C4"/>
<rect x="54" y="20" width="3" height="3" fill="#C4C4C4"/>
<rect x="63" y="20" width="3" height="3" fill="#C4C4C4"/>
<rect x="63" y="30" width="3" height="3" fill="#C4C4C4"/>
<rect x="54" y="30" width="3" height="3" fill="#C4C4C4"/>
<rect y="40" width="3" height="3" fill="#C4C4C4"/>
<rect x="9" y="40" width="3" height="3" fill="#C4C4C4"/>
<rect x="9" y="50" width="3" height="3" fill="#C4C4C4"/>
<rect y="50" width="3" height="3" fill="#C4C4C4"/>
<rect x="18" y="40" width="3" height="3" fill="#C4C4C4"/>
<rect x="27" y="40" width="3" height="3" fill="#C4C4C4"/>
<rect x="27" y="50" width="3" height="3" fill="#C4C4C4"/>
<rect x="18" y="50" width="3" height="3" fill="#C4C4C4"/>
<rect y="60" width="3" height="3" fill="#C4C4C4"/>
<rect x="9" y="60" width="3" height="3" fill="#C4C4C4"/>
<rect x="9" y="70" width="3" height="3" fill="#C4C4C4"/>
<rect y="70" width="3" height="3" fill="#C4C4C4"/>
<rect x="18" y="60" width="3" height="3" fill="#C4C4C4"/>
<rect x="27" y="60" width="3" height="3" fill="#C4C4C4"/>
<rect x="27" y="70" width="3" height="3" fill="#C4C4C4"/>
<rect x="18" y="70" width="3" height="3" fill="#C4C4C4"/>
<rect x="36" y="40" width="3" height="3" fill="#C4C4C4"/>
<rect x="45" y="40" width="3" height="3" fill="#C4C4C4"/>
<rect x="45" y="50" width="3" height="3" fill="#C4C4C4"/>
<rect x="36" y="50" width="3" height="3" fill="#C4C4C4"/>
<rect x="54" y="40" width="3" height="3" fill="#C4C4C4"/>
<rect x="63" y="40" width="3" height="3" fill="#C4C4C4"/>
<rect x="63" y="50" width="3" height="3" fill="#C4C4C4"/>
<rect x="54" y="50" width="3" height="3" fill="#C4C4C4"/>
<rect x="36" y="60" width="3" height="3" fill="#C4C4C4"/>
<rect x="45" y="60" width="3" height="3" fill="#C4C4C4"/>
<rect x="45" y="70" width="3" height="3" fill="#C4C4C4"/>
<rect x="36" y="70" width="3" height="3" fill="#C4C4C4"/>
<rect x="54" y="60" width="3" height="3" fill="#C4C4C4"/>
<rect x="63" y="60" width="3" height="3" fill="#C4C4C4"/>
<rect x="63" y="70" width="3" height="3" fill="#C4C4C4"/>
<rect x="54" y="70" width="3" height="3" fill="#C4C4C4"/>
<rect x="72" width="3" height="3" fill="#C4C4C4"/>
<rect x="81" width="3" height="3" fill="#C4C4C4"/>
<rect x="81" y="10" width="3" height="3" fill="#C4C4C4"/>
<rect x="72" y="10" width="3" height="3" fill="#C4C4C4"/>
<rect x="72" y="20" width="3" height="3" fill="#C4C4C4"/>
<rect x="81" y="20" width="3" height="3" fill="#C4C4C4"/>
<rect x="81" y="30" width="3" height="3" fill="#C4C4C4"/>
<rect x="72" y="30" width="3" height="3" fill="#C4C4C4"/>
<rect x="72" y="40" width="3" height="3" fill="#C4C4C4"/>
<rect x="81" y="40" width="3" height="3" fill="#C4C4C4"/>
<rect x="81" y="50" width="3" height="3" fill="#C4C4C4"/>
<rect x="72" y="50" width="3" height="3" fill="#C4C4C4"/>
<rect x="72" y="60" width="3" height="3" fill="#C4C4C4"/>
<rect x="81" y="60" width="3" height="3" fill="#C4C4C4"/>
<rect x="81" y="70" width="3" height="3" fill="#C4C4C4"/>
<rect x="72" y="70" width="3" height="3" fill="#C4C4C4"/>
<rect x="9" y="80" width="3" height="3" fill="#C4C4C4"/>
<rect y="80" width="3" height="3" fill="#C4C4C4"/>
<rect x="27" y="80" width="3" height="3" fill="#C4C4C4"/>
<rect x="18" y="80" width="3" height="3" fill="#C4C4C4"/>
<rect x="45" y="80" width="3" height="3" fill="#C4C4C4"/>
<rect x="36" y="80" width="3" height="3" fill="#C4C4C4"/>
<rect x="63" y="80" width="3" height="3" fill="#C4C4C4"/>
<rect x="54" y="80" width="3" height="3" fill="#C4C4C4"/>
<rect x="81" y="80" width="3" height="3" fill="#C4C4C4"/>
<rect x="72" y="80" width="3" height="3" fill="#C4C4C4"/>
</svg>
